<?xml version="1.0" encoding="utf-8"?>
<!-- Generator: Adobe Illustrator 19.1.0, SVG Export Plug-In . SVG Version: 6.00 Build 0)  -->
<svg version="1.1" id="Layer_1" xmlns="http://www.w3.org/2000/svg" xmlns:xlink="http://www.w3.org/1999/xlink" x="0px" y="0px"
	 viewBox="0 0 114.7 19.6" style="enable-background:new 0 0 114.7 19.6;" xml:space="preserve">
<g>
	<path d="M9.8,14.2c0,0.8-0.1,1.6-0.4,2.3c-0.3,0.7-0.6,1.2-1.1,1.7c-0.4,0.5-1,0.8-1.6,1.1c-0.6,0.2-1.3,0.4-2,0.4
		c-0.9,0-1.8-0.2-2.7-0.6c-0.9-0.4-1.5-0.9-2-1.6l1.4-1.7c0.4,0.5,0.9,0.9,1.5,1.2c0.6,0.3,1.2,0.4,1.8,0.4c0.8,0,1.4-0.3,1.9-0.8
		c0.5-0.5,0.8-1.3,0.8-2.3c0-0.5-0.1-0.9-0.2-1.2c-0.2-0.4-0.4-0.7-0.7-1c-0.3-0.3-0.6-0.6-1-0.8c-0.4-0.2-0.7-0.5-1.2-0.7
		c-0.5-0.2-1-0.5-1.4-0.8C2.5,9.5,2.1,9.1,1.8,8.7C1.4,8.3,1.2,7.9,1,7.3c-0.2-0.6-0.3-1.2-0.3-2c0-0.9,0.1-1.7,0.4-2.3
		c0.3-0.7,0.7-1.2,1.1-1.7c0.5-0.4,1-0.8,1.6-1C4.4,0.2,5,0.1,5.6,0.1c0.9,0,1.7,0.1,2.4,0.4c0.7,0.3,1.3,0.7,1.8,1.3L8.4,3.5
		C7.7,2.6,6.8,2.2,5.7,2.2c-0.3,0-0.7,0.1-1,0.2C4.4,2.5,4.1,2.7,3.8,2.9c-0.3,0.3-0.5,0.6-0.6,1C3,4.3,2.9,4.7,2.9,5.3
		c0,0.5,0.1,0.9,0.2,1.2c0.1,0.3,0.4,0.6,0.6,0.9C4,7.7,4.3,7.9,4.7,8.2C5,8.4,5.3,8.6,5.7,8.8c0.5,0.2,1,0.5,1.4,0.8
		c0.5,0.3,0.9,0.7,1.3,1.1c0.4,0.4,0.7,0.9,0.9,1.5C9.6,12.8,9.8,13.4,9.8,14.2z"/>
	<path d="M21,19.1l-1.1-4.4h-5.4l-1.1,4.4h-2.4l4.7-18.6h3.1l4.6,18.6H21z M17.3,2.7h-0.1l-2.4,10.2h4.8L17.3,2.7z"/>
	<path d="M25.7,19.1V0.5h2.4v16.4h5.3v2.2H25.7z"/>
	<path d="M35.5,19.1V0.5h7.8v2.1h-5.6v5.9H43v2h-5.2V17h5.8v2.1H35.5z"/>
	<path d="M55.2,14.2c0,0.8-0.1,1.6-0.4,2.3c-0.3,0.7-0.6,1.2-1.1,1.7c-0.4,0.5-1,0.8-1.6,1.1c-0.6,0.2-1.3,0.4-2,0.4
		c-0.9,0-1.8-0.2-2.7-0.6c-0.9-0.4-1.5-0.9-2-1.6l1.4-1.7c0.4,0.5,0.9,0.9,1.5,1.2c0.6,0.3,1.2,0.4,1.8,0.4c0.8,0,1.4-0.3,1.9-0.8
		c0.5-0.5,0.8-1.3,0.8-2.3c0-0.5-0.1-0.9-0.2-1.2c-0.2-0.4-0.4-0.7-0.7-1c-0.3-0.3-0.6-0.6-1-0.8c-0.4-0.2-0.7-0.5-1.2-0.7
		c-0.5-0.2-1-0.5-1.4-0.8c-0.4-0.3-0.8-0.7-1.2-1.1c-0.4-0.4-0.6-0.9-0.8-1.4c-0.2-0.6-0.3-1.2-0.3-2c0-0.9,0.1-1.7,0.4-2.3
		c0.3-0.7,0.7-1.2,1.1-1.7c0.5-0.4,1-0.8,1.6-1c0.6-0.2,1.2-0.3,1.8-0.3c0.9,0,1.7,0.1,2.4,0.4c0.7,0.3,1.3,0.7,1.8,1.3l-1.4,1.7
		c-0.7-0.9-1.6-1.3-2.7-1.3c-0.3,0-0.7,0.1-1,0.2c-0.3,0.1-0.6,0.3-0.9,0.6c-0.3,0.3-0.5,0.6-0.6,1c-0.2,0.4-0.2,0.9-0.2,1.4
		c0,0.5,0.1,0.9,0.2,1.2c0.1,0.3,0.4,0.6,0.6,0.9c0.3,0.3,0.5,0.5,0.9,0.7c0.3,0.2,0.7,0.4,1.1,0.6c0.5,0.2,1,0.5,1.4,0.8
		c0.5,0.3,0.9,0.7,1.3,1.1c0.4,0.4,0.7,0.9,0.9,1.5C55,12.8,55.2,13.4,55.2,14.2z"/>
	<path d="M66.4,19.1v-7.8h-4.3v7.8h-4.2V0.5h4.2v7h4.3v-7h4.2v18.6H66.4z"/>
	<path d="M82.2,19.1l-0.8-3.4h-4.2l-0.8,3.4h-4.2l4.5-18.6h5.3l4.5,18.6H82.2z M79.4,4.6h-0.1l-1.6,7.9h3.2L79.4,4.6z"/>
	<path d="M97.7,18.9c-0.8,0.5-1.9,0.7-3.2,0.7c-1.1,0-2.1-0.2-3-0.7c-0.9-0.5-1.6-1.2-2.3-2c-0.6-0.9-1.1-1.9-1.5-3.1
		c-0.4-1.2-0.5-2.5-0.5-4c0-1.5,0.2-2.8,0.5-4c0.4-1.2,0.8-2.2,1.5-3.1c0.6-0.9,1.4-1.5,2.3-2c0.9-0.5,1.9-0.7,3-0.7
		c1.2,0,2.3,0.2,3.1,0.7c0.8,0.4,1.5,1,2,1.7l-2.3,3.1c-0.3-0.4-0.7-0.8-1.1-1C95.9,4.1,95.4,4,94.8,4c-0.6,0-1,0.1-1.5,0.4
		c-0.4,0.3-0.8,0.7-1.1,1.2c-0.3,0.5-0.5,1.1-0.6,1.8c-0.1,0.7-0.2,1.5-0.2,2.3c0,0.8,0.1,1.6,0.2,2.3c0.1,0.7,0.4,1.3,0.6,1.8
		c0.3,0.5,0.6,0.9,1.1,1.2c0.4,0.3,0.9,0.4,1.5,0.4c0.6,0,1.1-0.1,1.5-0.4c0.4-0.3,0.8-0.6,1-1l2.3,2.9
		C99.2,17.8,98.5,18.4,97.7,18.9z"/>
	<path d="M109.8,19.1l-4-8.7h-0.1v8.7h-4.2V0.5h4.2v7.8h0.1l3.8-7.8h4.7L109.6,9l5.1,10.1H109.8z"/>
</g>
</svg>
